<?xml version="1.0" encoding="utf-8"?>
<!-- Generator: Adobe Illustrator 24.3.0, SVG Export Plug-In . SVG Version: 6.00 Build 0)  -->
<svg version="1.1" id="Layer_2" xmlns="http://www.w3.org/2000/svg" xmlns:xlink="http://www.w3.org/1999/xlink" x="0px" y="0px"
	 viewBox="0 0 953 336" style="enable-background:new 0 0 953 336;" xml:space="preserve">
<style type="text/css">
	.st0{fill:#FFFFFF;}
	.st1{opacity:0.5;}
	.st2{opacity:0.8;clip-path:url(#SVGID_2_);fill:#D9A1FF;}
	.st3{clip-path:url(#SVGID_4_);}
	.st4{opacity:0.44;clip-path:url(#SVGID_6_);fill:#D9A1FF;}
	.st5{opacity:0.44;clip-path:url(#SVGID_8_);fill:#D9A1FF;}
	.st6{opacity:0.44;clip-path:url(#SVGID_10_);fill:#D9A1FF;}
	.st7{opacity:0.44;clip-path:url(#SVGID_12_);fill:#D9A1FF;}
	.st8{opacity:0.44;clip-path:url(#SVGID_14_);fill:#D9A1FF;}
	.st9{opacity:0.44;clip-path:url(#SVGID_16_);fill:#D9A1FF;}
	.st10{opacity:0.44;clip-path:url(#SVGID_18_);fill:#D9A1FF;}
	.st11{opacity:0.44;clip-path:url(#SVGID_20_);fill:#D9A1FF;}
	.st12{fill:#DDDDDD;}
</style>
<g id="location_1_">
	<path class="st0" d="M221.69,204.2c-4.88-3.21-11.39-2.4-15.38,1.86l0,0c-31.31,33.41-83.97,35.12-117.38,3.8
		c-0.88-0.83-1.73-1.67-2.56-2.53c-3.97-4.13-10.43-4.75-15.15-1.51c-7.21,4.95-13.92,10.58-20.04,16.81
		c-4.43,4.51-4.5,11.84-0.15,16.44c1.75,1.85,3.56,3.66,5.45,5.42c52.5,49.2,135.25,46.52,184.46-5.98
		c0.48-0.52,0.96-1.04,1.44-1.56c4.29-4.73,4.04-12.1-0.53-16.55C235.67,214.39,228.92,208.96,221.69,204.2z"/>
	<g class="st1">
		<defs>
			<path id="SVGID_1_" class="st1" d="M221.69,204.2c-4.88-3.21-11.39-2.4-15.38,1.86l0,0c-31.31,33.41-83.97,35.12-117.38,3.8
				c-0.88-0.83-1.73-1.67-2.56-2.53c-3.97-4.13-10.43-4.75-15.15-1.51c-7.21,4.95-13.92,10.58-20.04,16.81
				c-4.43,4.51-4.5,11.84-0.15,16.44c1.75,1.85,3.56,3.66,5.45,5.42c52.5,49.2,135.25,46.52,184.46-5.98
				c0.48-0.52,0.96-1.04,1.44-1.56c4.29-4.73,4.04-12.1-0.53-16.55C235.67,214.39,228.92,208.96,221.69,204.2z"/>
		</defs>
		<clipPath id="SVGID_2_">
			<use xlink:href="#SVGID_1_"  style="overflow:visible;"/>
		</clipPath>
		<path class="st2" d="M242.85,213.12c-6.25-4.11-14.59-3.08-19.71,2.39l0,0C183,258.33,115.5,260.52,72.67,220.38
			c-1.13-1.06-2.22-2.14-3.28-3.24c-5.09-5.29-13.37-6.1-19.42-1.94c-9.25,6.35-17.85,13.57-25.69,21.54
			c-5.68,5.78-5.77,15.18-0.19,21.07c2.24,2.37,4.57,4.69,6.98,6.95c67.3,63.07,173.37,59.64,236.44-7.66
			c0.62-0.66,1.24-1.33,1.84-2c5.5-6.06,5.18-15.51-0.68-21.22C260.76,226.18,252.11,219.21,242.85,213.12z"/>
	</g>
	<path class="st0" d="M168.14,23.6l-16.19,16.19c-3.46,3.46-9.07,3.46-12.53,0L123.4,23.76c-2.2-2.2-5.39-3.08-8.4-2.34
		c-57.51,14-100.35,65.91-100.35,127.67c0,9.4,0.99,18.57,2.88,27.41c1.53,7.2,10.8,9.37,15.46,3.68
		c7.3-8.91,15.63-16.94,24.81-23.91c2.24-1.7,3.51-4.37,3.51-7.18l0,0c0-35.56,22.02-66.06,53.14-78.62c3.25-1.31,6.97-0.47,9.45,2
		L139.43,88c3.46,3.46,9.07,3.46,12.53,0l15.76-15.76c2.46-2.46,6.15-3.3,9.39-2.03c31.44,12.41,53.74,43.08,53.74,78.88l0,0
		c0,2.81,1.28,5.48,3.51,7.18c9.18,6.97,17.51,15.01,24.81,23.91c4.66,5.69,13.93,3.51,15.46-3.68c1.88-8.84,2.88-18.01,2.88-27.41
		c0-62-43.16-114.08-101-127.85C173.5,20.53,170.33,21.41,168.14,23.6z"/>
	<g>
		<defs>
			<path id="SVGID_3_" d="M168.14,23.6l-16.19,16.19c-3.46,3.46-9.07,3.46-12.53,0L123.4,23.76c-2.2-2.2-5.39-3.08-8.4-2.34
				c-57.51,14-100.35,65.91-100.35,127.67c0,9.4,0.99,18.57,2.88,27.41c1.53,7.2,10.8,9.37,15.46,3.68
				c7.3-8.91,15.63-16.94,24.81-23.91c2.24-1.7,3.51-4.37,3.51-7.18l0,0c0-35.56,22.02-66.06,53.14-78.62
				c3.25-1.31,6.97-0.47,9.45,2L139.43,88c3.46,3.46,9.07,3.46,12.53,0l15.76-15.76c2.46-2.46,6.15-3.3,9.39-2.03
				c31.44,12.41,53.74,43.08,53.74,78.88l0,0c0,2.81,1.28,5.48,3.51,7.18c9.18,6.97,17.51,15.01,24.81,23.91
				c4.66,5.69,13.93,3.51,15.46-3.68c1.88-8.84,2.88-18.01,2.88-27.41c0-62-43.16-114.08-101-127.85
				C173.5,20.53,170.33,21.41,168.14,23.6z"/>
		</defs>
		<clipPath id="SVGID_4_">
			<use xlink:href="#SVGID_3_"  style="overflow:visible;"/>
		</clipPath>
		<g class="st3">
			<defs>
				<path id="SVGID_5_" d="M110.42-16c-2.55,9.45,4.11,18.08,15.65,20.43l0,0c90.47,18.44,134.82,92.04,98.87,164.08
					c-0.95,1.9-1.96,3.77-3.01,5.62c-5.08,8.87-1.29,18.56,8.79,22.74c15.41,6.39,31.78,11.54,48.85,15.38
					c12.38,2.78,26.93-2.86,32.64-12.64c2.3-3.94,4.47-7.94,6.49-11.99C375.2,74.41,305.5-41.26,163.33-70.23
					c-1.4-0.29-2.8-0.56-4.21-0.83c-12.69-2.41-27.08,3.71-32.33,13.7C119.7-43.86,114.2-30.01,110.42-16z"/>
			</defs>
			<clipPath id="SVGID_6_">
				<use xlink:href="#SVGID_5_"  style="overflow:visible;"/>
			</clipPath>
			<path class="st4" d="M102.45,60.55c-2.55,9.45,4.11,18.08,15.65,20.43l0,0c90.47,18.44,134.82,92.04,98.87,164.08
				c-0.95,1.9-1.96,3.77-3.01,5.62c-5.08,8.87-1.29,18.56,8.79,22.74c15.41,6.39,31.78,11.54,48.85,15.38
				c12.38,2.78,26.93-2.86,32.64-12.64c2.3-3.94,4.47-7.94,6.49-11.99C367.23,150.97,297.54,35.3,155.37,6.33
				c-1.4-0.29-2.8-0.56-4.21-0.83c-12.69-2.41-27.08,3.71-32.33,13.7C111.74,32.7,106.24,46.55,102.45,60.55z"/>
		</g>
		<g class="st3">
			<defs>
				<path id="SVGID_7_" d="M182.31-16c2.55,9.45-4.11,18.08-15.65,20.43l0,0C76.19,22.86,31.84,96.46,67.8,168.5
					c0.95,1.9,1.96,3.77,3.01,5.62c5.08,8.87,1.29,18.56-8.79,22.74c-15.41,6.39-31.78,11.54-48.85,15.38
					c-12.38,2.78-26.93-2.86-32.64-12.64c-2.3-3.94-4.47-7.94-6.49-11.99C-82.47,74.41-12.77-41.26,129.4-70.23
					c1.4-0.29,2.8-0.56,4.21-0.83c12.69-2.41,27.08,3.71,32.33,13.7C173.03-43.86,178.53-30.01,182.31-16z"/>
			</defs>
			<clipPath id="SVGID_8_">
				<use xlink:href="#SVGID_7_"  style="overflow:visible;"/>
			</clipPath>
			<path class="st5" d="M190.28,60.55c2.55,9.45-4.11,18.08-15.65,20.43l0,0C84.15,99.42,39.8,173.02,75.76,245.06
				c0.95,1.9,1.96,3.77,3.01,5.62c5.08,8.87,1.29,18.56-8.79,22.74c-15.41,6.39-31.78,11.54-48.85,15.38
				c-12.38,2.78-26.93-2.86-32.64-12.64c-2.3-3.94-4.47-7.94-6.49-11.99C-74.5,150.97-4.81,35.3,137.36,6.33
				c1.4-0.29,2.8-0.56,4.21-0.83c12.69-2.41,27.08,3.71,32.33,13.7C181,32.7,186.5,46.55,190.28,60.55z"/>
		</g>
	</g>
	<path class="st0" d="M175.23,304.07l-20.4,20.65c-2.09,2.12-5.51,2.14-7.63,0.05l-20.65-20.4c-3.42-3.38-1.05-9.21,3.76-9.24
		l41.05-0.26C176.16,294.85,178.61,300.65,175.23,304.07z"/>
</g>
<path class="st0" d="M164.66,142.34H96.31c-3.4,0-6.16-2.76-6.16-6.16v-6.66c0-3.4,2.76-6.16,6.16-6.16h68.35
	c3.4,0,6.16,2.76,6.16,6.16v6.66C170.82,139.58,168.06,142.34,164.66,142.34z"/>
<g>
	<defs>
		<path id="SVGID_9_" d="M164.66,142.34H96.31c-3.4,0-6.16-2.76-6.16-6.16v-6.66c0-3.4,2.76-6.16,6.16-6.16h68.35
			c3.4,0,6.16,2.76,6.16,6.16v6.66C170.82,139.58,168.06,142.34,164.66,142.34z"/>
	</defs>
	<clipPath id="SVGID_10_">
		<use xlink:href="#SVGID_9_"  style="overflow:visible;"/>
	</clipPath>
	<path class="st6" d="M91.31,142.34h-4.77c-2.67,0-4.83-2.16-4.83-4.83v-9.33c0-2.67,2.16-4.83,4.83-4.83h4.77
		c2.67,0,4.83,2.16,4.83,4.83v9.33C96.13,140.18,93.97,142.34,91.31,142.34z"/>
	<path class="st6" d="M93.72,142.34h-4.77c-2.67,0-4.83-2.16-4.83-4.83v-9.33c0-2.67,2.16-4.83,4.83-4.83h4.77
		c2.67,0,4.83,2.16,4.83,4.83v9.33C98.54,140.18,96.38,142.34,93.72,142.34z"/>
</g>
<path class="st0" d="M190,142.34h-6.92c-3.4,0-6.16-2.76-6.16-6.16v-6.66c0-3.4,2.76-6.16,6.16-6.16H190c3.4,0,6.16,2.76,6.16,6.16
	v6.66C196.16,139.58,193.4,142.34,190,142.34z"/>
<g>
	<defs>
		<path id="SVGID_11_" d="M190,142.34h-6.92c-3.4,0-6.16-2.76-6.16-6.16v-6.66c0-3.4,2.76-6.16,6.16-6.16H190
			c3.4,0,6.16,2.76,6.16,6.16v6.66C196.16,139.58,193.4,142.34,190,142.34z"/>
	</defs>
	<clipPath id="SVGID_12_">
		<use xlink:href="#SVGID_11_"  style="overflow:visible;"/>
	</clipPath>
	<path class="st7" d="M173.26,142.34h-4.77c-2.67,0-4.83-2.16-4.83-4.83v-9.33c0-2.67,2.16-4.83,4.83-4.83h4.77
		c2.67,0,4.83,2.16,4.83,4.83v9.33C178.08,140.18,175.92,142.34,173.26,142.34z"/>
	<path class="st7" d="M175.67,142.34h-4.77c-2.67,0-4.83-2.16-4.83-4.83v-9.33c0-2.67,2.16-4.83,4.83-4.83h4.77
		c2.67,0,4.83,2.16,4.83,4.83v9.33C180.49,140.18,178.33,142.34,175.67,142.34z"/>
</g>
<path class="st0" d="M164.66,167.65H96.31c-3.4,0-6.16-2.76-6.16-6.16v-6.66c0-3.4,2.76-6.16,6.16-6.16h68.35
	c3.4,0,6.16,2.76,6.16,6.16v6.66C170.82,164.89,168.06,167.65,164.66,167.65z"/>
<g>
	<defs>
		<path id="SVGID_13_" d="M164.66,167.65H96.31c-3.4,0-6.16-2.76-6.16-6.16v-6.66c0-3.4,2.76-6.16,6.16-6.16h68.35
			c3.4,0,6.16,2.76,6.16,6.16v6.66C170.82,164.89,168.06,167.65,164.66,167.65z"/>
	</defs>
	<clipPath id="SVGID_14_">
		<use xlink:href="#SVGID_13_"  style="overflow:visible;"/>
	</clipPath>
	<path class="st8" d="M91.31,167.65h-4.77c-2.67,0-4.83-2.16-4.83-4.83v-9.33c0-2.67,2.16-4.83,4.83-4.83h4.77
		c2.67,0,4.83,2.16,4.83,4.83v9.33C96.13,165.49,93.97,167.65,91.31,167.65z"/>
	<path class="st8" d="M93.72,167.65h-4.77c-2.67,0-4.83-2.16-4.83-4.83v-9.33c0-2.67,2.16-4.83,4.83-4.83h4.77
		c2.67,0,4.83,2.16,4.83,4.83v9.33C98.54,165.49,96.38,167.65,93.72,167.65z"/>
</g>
<path class="st0" d="M190,167.65h-6.92c-3.4,0-6.16-2.76-6.16-6.16v-6.66c0-3.4,2.76-6.16,6.16-6.16H190c3.4,0,6.16,2.76,6.16,6.16
	v6.66C196.16,164.89,193.4,167.65,190,167.65z"/>
<g>
	<defs>
		<path id="SVGID_15_" d="M190,167.65h-6.92c-3.4,0-6.16-2.76-6.16-6.16v-6.66c0-3.4,2.76-6.16,6.16-6.16H190
			c3.4,0,6.16,2.76,6.16,6.16v6.66C196.16,164.89,193.4,167.65,190,167.65z"/>
	</defs>
	<clipPath id="SVGID_16_">
		<use xlink:href="#SVGID_15_"  style="overflow:visible;"/>
	</clipPath>
	<path class="st9" d="M173.26,167.65h-4.77c-2.67,0-4.83-2.16-4.83-4.83v-9.33c0-2.67,2.16-4.83,4.83-4.83h4.77
		c2.67,0,4.83,2.16,4.83,4.83v9.33C178.08,165.49,175.92,167.65,173.26,167.65z"/>
	<path class="st9" d="M175.67,167.65h-4.77c-2.67,0-4.83-2.16-4.83-4.83v-9.33c0-2.67,2.16-4.83,4.83-4.83h4.77
		c2.67,0,4.83,2.16,4.83,4.83v9.33C180.49,165.49,178.33,167.65,175.67,167.65z"/>
</g>
<path class="st0" d="M164.66,192.96H96.31c-3.4,0-6.16-2.76-6.16-6.16v-6.66c0-3.4,2.76-6.16,6.16-6.16h68.35
	c3.4,0,6.16,2.76,6.16,6.16v6.66C170.82,190.2,168.06,192.96,164.66,192.96z"/>
<g>
	<defs>
		<path id="SVGID_17_" d="M164.66,192.96H96.31c-3.4,0-6.16-2.76-6.16-6.16v-6.66c0-3.4,2.76-6.16,6.16-6.16h68.35
			c3.4,0,6.16,2.76,6.16,6.16v6.66C170.82,190.2,168.06,192.96,164.66,192.96z"/>
	</defs>
	<clipPath id="SVGID_18_">
		<use xlink:href="#SVGID_17_"  style="overflow:visible;"/>
	</clipPath>
	<path class="st10" d="M91.31,192.96h-4.77c-2.67,0-4.83-2.16-4.83-4.83v-9.33c0-2.67,2.16-4.83,4.83-4.83h4.77
		c2.67,0,4.83,2.16,4.83,4.83v9.33C96.13,190.8,93.97,192.96,91.31,192.96z"/>
	<path class="st10" d="M93.72,192.96h-4.77c-2.67,0-4.83-2.16-4.83-4.83v-9.33c0-2.67,2.16-4.83,4.83-4.83h4.77
		c2.67,0,4.83,2.16,4.83,4.83v9.33C98.54,190.8,96.38,192.96,93.72,192.96z"/>
</g>
<path class="st0" d="M190,192.96h-6.92c-3.4,0-6.16-2.76-6.16-6.16v-6.66c0-3.4,2.76-6.16,6.16-6.16H190c3.4,0,6.16,2.76,6.16,6.16
	v6.66C196.16,190.2,193.4,192.96,190,192.96z"/>
<g>
	<defs>
		<path id="SVGID_19_" d="M190,192.96h-6.92c-3.4,0-6.16-2.76-6.16-6.16v-6.66c0-3.4,2.76-6.16,6.16-6.16H190
			c3.4,0,6.16,2.76,6.16,6.16v6.66C196.16,190.2,193.4,192.96,190,192.96z"/>
	</defs>
	<clipPath id="SVGID_20_">
		<use xlink:href="#SVGID_19_"  style="overflow:visible;"/>
	</clipPath>
	<path class="st11" d="M173.26,192.96h-4.77c-2.67,0-4.83-2.16-4.83-4.83v-9.33c0-2.67,2.16-4.83,4.83-4.83h4.77
		c2.67,0,4.83,2.16,4.83,4.83v9.33C178.08,190.8,175.92,192.96,173.26,192.96z"/>
	<path class="st11" d="M175.67,192.96h-4.77c-2.67,0-4.83-2.16-4.83-4.83v-9.33c0-2.67,2.16-4.83,4.83-4.83h4.77
		c2.67,0,4.83,2.16,4.83,4.83v9.33C180.49,190.8,178.33,192.96,175.67,192.96z"/>
</g>
<g id="Elmakan_2_">
	<path class="st0" d="M357.17,91.22H316.7v30.58h35.98v13.94H316.7v31.93h40.47v13.94h-57.56V77.28h57.56V91.22z"/>
	<path class="st0" d="M378.15,70.68h17.09v110.92h-17.09V70.68z"/>
	<path class="st0" d="M534.79,135.44c0-15.14-8.24-22.93-20.69-22.93c-12.59,0-20.84,7.79-20.84,22.93v46.17h-16.94v-46.17
		c0-15.14-8.25-22.93-20.69-22.93c-12.59,0-20.83,7.79-20.83,22.93v46.17h-17.09V99.01h17.09v9.44
		c5.55-6.75,14.54-10.79,24.43-10.79c13.04,0,23.98,5.55,29.68,16.34c5.1-10.04,16.79-16.34,28.78-16.34
		c19.34,0,34.03,12.14,34.03,35.23v48.72h-16.94V135.44z"/>
	<path class="st0" d="M606.73,97.66c13.94,0,23.53,6.6,28.63,13.34V99.01h17.24v82.59h-17.24v-12.29
		c-5.25,7.04-15.14,13.64-28.93,13.64c-21.43,0-38.67-17.54-38.67-43.02C567.76,114.45,585,97.66,606.73,97.66z M610.33,112.5
		c-12.74,0-25.03,9.59-25.03,27.43c0,17.84,12.29,28.18,25.03,28.18c12.89,0,25.03-10.04,25.03-27.88
		C635.36,122.55,623.22,112.5,610.33,112.5z"/>
	<path class="st0" d="M675.08,70.68h17.09v64.46l29.98-36.12h23.68l-38.07,41.37l38.07,41.22h-23.08l-30.58-35.53v35.53h-17.09
		V70.68z"/>
	<path class="st0" d="M791.4,97.66c13.94,0,23.53,6.6,28.63,13.34V99.01h17.24v82.59h-17.24v-12.29
		c-5.25,7.04-15.14,13.64-28.93,13.64c-21.43,0-38.67-17.54-38.67-43.02C752.42,114.45,769.66,97.66,791.4,97.66z M794.99,112.5
		c-12.74,0-25.03,9.59-25.03,27.43c0,17.84,12.29,28.18,25.03,28.18c12.89,0,25.03-10.04,25.03-27.88
		C820.03,122.55,807.89,112.5,794.99,112.5z"/>
	<path class="st0" d="M918.36,135.44c0-15.14-8.25-22.93-20.69-22.93c-12.59,0-20.83,7.79-20.83,22.93v46.17h-17.09V99.01h17.09
		v9.44c5.55-6.75,14.69-10.79,24.58-10.79c19.34,0,33.88,12.14,33.88,35.23v48.72h-16.94V135.44z"/>
</g>
<g id="System_2_">
	<path class="st12" d="M319.5,254.71c-11.98,0-20.44-6.67-20.61-16.51h8.3c0.51,4.96,4.02,9.92,12.32,9.92
		c7.53,0,11.97-4.28,11.97-9.92c0-16.08-32.25-5.82-32.25-27.97c0-9.84,7.95-16.51,19.76-16.51c11.38,0,18.82,6.24,19.76,15.31
		h-8.55c-0.51-4.02-4.28-8.55-11.55-8.64c-6.42-0.17-11.46,3.16-11.46,9.58c0,15.4,32.16,5.82,32.16,27.88
		C339.35,246.33,332.42,254.71,319.5,254.71z"/>
	<path class="st12" d="M383.15,207.24h8.04l-28.23,68.94h-8.04l9.24-22.58l-18.9-46.36h8.64l14.71,37.98L383.15,207.24z"/>
	<path class="st12" d="M415.57,254.88c-10.95,0-18.65-5.99-19.16-14.54h8.04c0.43,4.53,4.45,7.95,11.03,7.95
		c6.16,0,9.58-3.08,9.58-6.93c0-10.44-27.71-4.36-27.71-21.81c0-7.18,6.76-13.09,17.19-13.09c10.35,0,17.19,5.56,17.71,14.71h-7.78
		c-0.34-4.7-3.93-8.13-10.18-8.13c-5.73,0-9.15,2.74-9.15,6.5c0,11.12,27.2,5.05,27.54,21.81
		C432.68,249.07,425.92,254.88,415.57,254.88z"/>
	<path class="st12" d="M445.34,213.65h-6.07v-6.42h6.07v-11.8h7.78v11.8h12.23v6.42h-12.23v27.63c0,4.62,1.71,6.24,6.5,6.24h5.73
		v6.59h-7.01c-8.3,0-13-3.42-13-12.83V213.65z"/>
	<path class="st12" d="M495.04,254.88c-13.34,0-23.18-9.41-23.18-24.29c0-14.8,9.49-24.12,23.18-24.12c13.6,0,22.5,9.58,22.5,22.41
		c0,1.71-0.09,3.08-0.26,4.71h-37.47c0.6,9.49,7.27,14.71,15.23,14.71c7.01,0,11.46-3.59,13.17-8.64h8.38
		C514.2,248.21,506.67,254.88,495.04,254.88z M479.9,227.25h29.6c0.08-9.15-6.76-14.2-14.8-14.2
		C487.09,213.06,480.76,218.1,479.9,227.25z"/>
	<path class="st12" d="M595.47,227.6c0-9.58-5.13-14.46-12.83-14.46c-7.87,0-13.26,5.05-13.26,15.14v25.83h-7.7V227.6
		c0-9.58-5.13-14.46-12.83-14.46c-7.87,0-13.26,5.05-13.26,15.14v25.83h-7.78v-46.87h7.78V214c3.08-4.96,8.64-7.61,14.8-7.61
		c7.7,0,14.11,3.42,17.19,10.44c2.74-6.76,9.41-10.44,16.59-10.44c10.69,0,18.99,6.67,18.99,20.1v27.63h-7.7V227.6z"/>
	<path class="st12" d="M632.52,254.88c-10.95,0-18.65-5.99-19.16-14.54h8.04c0.43,4.53,4.45,7.95,11.03,7.95
		c6.16,0,9.58-3.08,9.58-6.93c0-10.44-27.71-4.36-27.71-21.81c0-7.18,6.76-13.09,17.19-13.09c10.35,0,17.19,5.56,17.71,14.71h-7.78
		c-0.34-4.7-3.93-8.13-10.18-8.13c-5.73,0-9.15,2.74-9.15,6.5c0,11.12,27.2,5.05,27.54,21.81
		C649.62,249.07,642.87,254.88,632.52,254.88z"/>
</g>
</svg>
