<svg width="80" height="80" viewBox="0 0 80 80" fill="none" xmlns="http://www.w3.org/2000/svg">
<path d="M18.8345 38.3971C19.6431 38.6656 20.5267 38.7978 21.4374 38.7589C22.803 38.7034 24.0668 38.2717 25.0886 37.5851C26.112 36.8976 26.9022 35.9562 27.351 34.862C27.651 34.1326 27.7957 33.3371 27.7532 32.5171C27.6916 31.287 27.2122 30.1481 26.45 29.2281C25.6872 28.3071 24.6406 27.5942 23.4265 27.1887C22.6179 26.9203 21.7341 26.789 20.8247 26.827C19.4584 26.8834 18.1948 27.3142 17.1724 28.0009C16.1501 28.6893 15.3591 29.6309 14.9101 30.725C14.61 31.4534 14.4651 32.25 14.5078 33.0687C14.5699 34.3 15.0487 35.4378 15.8115 36.3589C16.5738 37.2787 17.621 37.9926 18.8345 38.3971ZM17.634 30.8775C18.0447 30.2707 18.6494 29.7737 19.3661 29.4654C19.844 29.2612 20.3718 29.1346 20.9418 29.1114C21.7952 29.0764 22.5823 29.2728 23.2576 29.6443C23.9313 30.0139 24.4824 30.5584 24.8246 31.2043C25.053 31.6342 25.1923 32.1087 25.2182 32.6232C25.257 33.3925 25.0385 34.1006 24.6275 34.7093C24.2161 35.3171 23.6118 35.8121 22.8947 36.1215C22.417 36.3267 21.8897 36.4521 21.3201 36.4754C20.4657 36.5104 19.6785 36.3121 19.0027 35.9436C18.3296 35.572 17.7785 35.0284 17.4363 34.3826C17.208 33.9526 17.0687 33.4771 17.0429 32.9646C17.0045 32.1943 17.2233 31.4854 17.634 30.8775Z" fill="#9810FA"/>
<path d="M47.2613 63.1898C47.3942 65.7797 49.8335 67.7831 52.7102 67.6625C55.5853 67.5439 57.8091 65.3459 57.6759 62.7551C57.543 60.1642 55.1036 58.1609 52.228 58.2815C49.352 58.4011 47.1279 60.5981 47.2613 63.1898Z" fill="#9810FA"/>
<path d="M37.311 61.275C34.7312 61.383 32.7361 63.3544 32.8554 65.6786C32.9748 68.0028 35.1636 69.8002 37.7434 69.6922C40.323 69.5843 42.3183 67.613 42.1989 65.2896C42.0796 62.9652 39.8906 61.1682 37.311 61.275Z" fill="#9810FA"/>
<path d="M23.15 63.4844C25.448 63.3891 27.2245 61.6336 27.1182 59.5631C27.012 57.4936 25.0632 55.8928 22.7651 55.9892C20.4667 56.0855 18.6907 57.8408 18.7965 59.9105C18.903 61.981 20.8516 63.5808 23.15 63.4844Z" fill="#9810FA"/>
<path d="M12.9962 49.2041C13.0793 50.8233 14.6033 52.0739 16.4013 51.9991C18.1978 51.9252 19.5889 50.5521 19.5058 48.9329C19.4227 47.3136 17.8972 46.0629 16.1002 46.1369C14.3025 46.2125 12.913 47.5838 12.9962 49.2041Z" fill="#9810FA"/>
<path d="M44.4688 40.6048L44.4341 40.5076L39.1003 37.1191L38.9881 37.1221C36.303 37.1755 33.4708 38.6927 31.5982 41.086C29.8222 43.3559 28.9709 45.7007 28.1471 47.9687C27.5851 49.5149 27.0044 51.1157 26.1311 52.6912C25.4083 53.9963 24.9766 54.4827 24.9753 54.4846L24.5332 54.9573L25.0211 55.143C27.2904 56.0057 30.545 55.7713 33.949 54.5041C37.5252 53.1737 40.6718 50.9349 42.8083 48.206C44.6819 45.8126 45.3173 42.9009 44.4688 40.6048ZM39.6871 49.1552C39.5893 49.2262 39.4857 49.303 39.3789 49.3905C38.1853 50.3573 36.8293 50.1646 37.9139 48.3635C39.0004 46.5624 37.5678 46.1987 36.1915 47.462C34.4652 49.0462 33.8951 48.0152 34.2843 47.2071C34.6725 46.4009 35.8362 45.223 35.0751 44.6446C34.6163 44.2965 33.8719 44.9752 32.7026 45.9155C32.0334 46.4552 30.6589 46.4709 31.5042 44.3352C31.9141 43.5299 32.3954 42.7443 32.9973 41.974C34.3032 40.3043 36.2896 39.1751 38.1881 39.0195L42.7561 41.9195C43.232 43.5826 42.7177 45.6462 41.4104 47.3179C40.907 47.9579 40.3279 48.5746 39.6871 49.1552Z" fill="#9810FA"/>
<path d="M42.1913 35.9191L44.6517 37.4801C45.408 37.9626 46.4645 37.9985 47.5694 37.5841C48.6743 37.1679 49.7335 36.3365 50.4984 35.2841L53.9628 30.516L46.3473 25.6777L42.5255 30.2193C41.6806 31.222 41.1684 32.3998 41.1046 33.4773C41.0409 34.5548 41.4348 35.4377 42.1913 35.9191Z" fill="#9810FA"/>
<path d="M71.5304 5.51805C72.9647 3.54383 72.9744 1.28946 71.5558 0.387116L71.537 0.377428C70.1178 -0.524134 67.7649 0.241178 66.1826 2.12212L47.7065 24.0641L55.1932 28.8188L71.5304 5.51805Z" fill="#9810FA"/>
<path d="M79.9773 42.2982L79.9612 41.9528C79.8304 39.403 79.3038 37.1389 78.3963 35.223C77.5462 33.4239 76.3689 31.9408 74.8961 30.8136C73.9844 30.1135 72.969 29.561 71.8782 29.173C70.6624 28.7411 69.386 28.5214 68.0838 28.5214C67.9274 28.5214 67.773 28.5244 67.6174 28.5311C66.371 28.5836 65.1786 28.8355 64.0737 29.2808C62.9374 29.7418 61.9695 30.3758 61.1975 31.1666C59.5661 32.8383 57.3666 34.0364 54.9228 34.6511L53.2735 36.92C52.7797 37.5999 52.1903 38.1989 51.5532 38.73C51.7124 38.7261 51.8717 38.7261 52.0319 38.7194C56.7628 38.5219 61.2022 36.6391 64.2116 33.5543C64.5944 33.1624 65.1153 32.8249 65.7177 32.5799C66.3536 32.3232 67.0742 32.1724 67.8041 32.1433L68.0847 32.1385C68.9981 32.1385 69.8873 32.3144 70.7282 32.6616C71.7717 33.0954 72.6889 33.7732 73.4547 34.6777C74.041 35.3721 74.5327 36.1938 74.9166 37.1207C75.506 38.5407 75.8546 40.2221 75.9525 42.1204L75.966 42.4375C76.2029 48.9544 74.3584 55.3157 70.6322 60.8319C66.98 66.2322 61.746 70.5182 55.4955 73.2247C51.1754 75.0949 46.5249 76.1472 41.6732 76.3504C41.1074 76.3736 40.5444 76.3854 39.9846 76.3854C33.3833 76.3854 26.9176 74.7505 21.2868 71.656C15.3004 68.366 10.542 63.6258 7.52561 57.9463C5.44623 54.0347 4.27818 49.8316 4.05303 45.4561C3.68982 38.3374 5.89912 31.478 10.4421 25.6186C14.8053 19.9936 21.2081 15.5958 28.47 13.2355C28.871 13.1052 29.3617 13.0235 29.8498 13.005C29.9393 13.0011 30.03 12.9991 30.1213 12.9991C30.6907 12.9991 31.2662 13.075 31.7838 13.2189C32.4121 13.3902 32.9715 13.6624 33.4022 14.0066C33.7029 14.2479 33.9442 14.5211 34.1407 14.843C34.436 15.3361 34.5974 15.906 34.6347 16.5868C34.6594 17.0749 34.6158 17.6088 34.5034 18.1739C34.4328 18.5386 34.3449 18.9208 34.2453 19.3527C34.1492 19.7699 34.0483 20.2086 33.9565 20.6714C33.8032 21.4533 33.6348 22.4989 33.6943 23.6611C33.8563 26.8257 35.0481 29.8357 37.1415 32.3652C37.359 32.6277 37.5885 32.8796 37.8222 33.1286C37.9469 31.703 38.5368 30.2538 39.4922 28.9527C39.3309 28.6979 39.1494 28.4547 39.0086 28.1883C38.227 26.7179 37.7882 25.1375 37.7033 23.4939C37.6709 22.8696 37.7363 22.1743 37.9096 21.3038C37.9835 20.9225 38.0742 20.5268 38.181 20.0647C38.2733 19.6632 38.3694 19.243 38.4563 18.8054C38.6194 17.9786 38.6825 17.1764 38.6436 16.4179C38.5784 15.068 38.1633 13.8066 37.4426 12.77C36.7906 11.8238 35.8562 11.0214 34.7414 10.4505C34.083 10.1102 33.3579 9.8466 32.5869 9.66582C31.7849 9.4791 30.9504 9.38379 30.1065 9.38379C29.9586 9.38379 29.8113 9.38676 29.6659 9.39254C28.7532 9.43254 27.8922 9.58129 27.1073 9.83613C18.9593 12.4835 12.059 17.2246 7.15198 23.5469C2.09299 30.061 -0.364869 37.6952 0.0437916 45.6243C0.412557 52.8364 3.12991 59.6996 7.90287 65.4714C12.5603 71.0985 18.8724 75.3552 26.1554 77.7797C30.5828 79.2532 35.2333 80 39.9772 80C40.6016 80 41.2285 79.9874 41.8588 79.9602C47.251 79.7355 52.4245 78.5655 57.2346 76.4824C61.8721 74.4752 65.9902 71.7014 69.4748 68.2383C76.5988 61.1661 80.3282 51.9533 79.9773 42.2982Z" fill="#9810FA"/>
</svg>
