<svg width="80" height="80" viewBox="0 0 80 80" fill="none" xmlns="http://www.w3.org/2000/svg">
<g clip-path="url(#clip0_1304_806)">
<path d="M0.085 41.67C0.97 62.9475 18.5075 80 40 80C61.4925 80 79.03 62.9475 79.915 41.67C79.9673 41.5359 79.9961 41.3938 80 41.25C80 41.16 79.9675 41.0825 79.95 41C79.9575 40.665 80 40.3375 80 40C80 17.945 62.055 0 40 0C17.945 0 0 17.945 0 40C0 40.3375 0.0425 40.665 0.05 41C0.0325 41.0825 0 41.16 0 41.25C0 41.4 0.0375 41.5375 0.085 41.67ZM62.3025 56.855C58.9051 55.4462 55.3749 54.3817 51.765 53.6775C52.16 50.045 52.3925 46.2725 52.465 42.5025H64.915C64.6875 47.6375 63.775 52.485 62.3025 56.855ZM67.4125 42.5H77.3725C76.9299 49.3062 74.627 55.8603 70.715 61.4475C68.7718 60.0778 66.7171 58.8736 64.5725 57.8475C66.185 53.175 67.1775 47.99 67.4125 42.5ZM30.9725 55.715C33.9587 55.2438 36.9769 55.0047 40 55C43.06 55 46.0825 55.255 49.025 55.715C47.29 69.0525 43.5 77.5 40 77.5C36.5 77.5 32.71 69.0525 30.9725 55.715ZM34.77 76.66C27.8925 74.455 22.075 67.9825 18.565 59.2C21.7808 57.8573 25.1223 56.8381 28.54 56.1575C29.6875 64.8975 31.785 72.5125 34.77 76.66ZM30.685 26.7725C33.7668 27.2528 36.881 27.496 40 27.5C43.119 27.496 46.2332 27.2528 49.315 26.7725C49.745 30.8225 50 35.2425 50 40H30C30 35.2425 30.255 30.8225 30.685 26.7725ZM49.9625 42.5C49.9029 46.0836 49.686 49.6629 49.3125 53.2275C46.2315 52.7473 43.1182 52.5041 40 52.5C36.881 52.504 33.7668 52.7472 30.685 53.2275C30.3115 49.6629 30.0946 46.0836 30.035 42.5H49.9625ZM51.4625 56.1575C54.9725 56.8625 58.32 57.8875 61.4375 59.2C57.9275 67.9825 52.11 74.455 45.2325 76.66C48.215 72.5125 50.3125 64.8975 51.4625 56.1575ZM52.5 40C52.5 35.41 52.245 30.76 51.765 26.325C55.465 25.595 59.005 24.525 62.3025 23.1475C64.0125 28.22 65 33.935 65 40H52.5ZM51.4625 23.8425C50.3125 15.1025 48.2175 7.485 45.23 3.34C52.1075 5.545 57.925 12.0175 61.435 20.8C58.2212 22.1457 54.8802 23.165 51.4625 23.8425ZM49.0275 24.285C46.0825 24.745 43.06 25 40 25C36.94 25 33.9175 24.745 30.9725 24.285C32.71 10.9475 36.5 2.5 40 2.5C43.5 2.5 47.29 10.9475 49.0275 24.285ZM28.5375 23.8425C25.1198 23.1619 21.7783 22.1427 18.5625 20.8C22.0725 12.0175 27.89 5.545 34.7675 3.34C31.785 7.4875 29.6875 15.1025 28.5375 23.8425ZM28.235 26.325C27.7452 30.8669 27.4998 35.4318 27.5 40H15C15 33.935 15.9875 28.22 17.6975 23.145C20.995 24.525 24.535 25.5925 28.235 26.325ZM27.535 42.5C27.6075 46.27 27.84 50.0425 28.235 53.6775C24.535 54.4075 20.995 55.4775 17.6975 56.855C16.225 52.485 15.3125 47.6375 15.085 42.5H27.535ZM15.425 57.8475C13.2813 58.8737 11.2274 60.0779 9.285 61.4475C5.37301 55.8603 3.07014 49.3062 2.6275 42.5H12.5875C12.8225 47.99 13.815 53.175 15.425 57.8475ZM10.7825 63.45C12.5314 62.2167 14.3765 61.1257 16.3 60.1875C18.81 66.4 22.4225 71.5575 26.765 75.045C20.5002 72.6718 14.9827 68.6689 10.7825 63.45ZM53.235 75.0425C57.58 71.5575 61.19 66.3975 63.7 60.185C65.675 61.145 67.505 62.25 69.2175 63.4475C65.0189 68.6682 59.5009 72.6714 53.235 75.0425ZM67.5 40C67.5 33.5825 66.43 27.5325 64.575 22.1525C66.775 21.0975 68.82 19.885 70.7175 18.5525C75.1345 24.8319 77.5034 32.3227 77.5 40H67.5ZM69.22 16.55C67.5075 17.7475 65.6775 18.8525 63.7025 19.8125C61.1925 13.6 57.58 8.44 53.2375 4.955C59.5017 7.32929 65.0189 11.332 69.22 16.55ZM26.765 4.9575C22.42 8.4425 18.81 13.6025 16.3 19.815C14.3764 18.876 12.5313 17.7842 10.7825 16.55C14.9822 11.3311 20.5 7.32895 26.765 4.9575ZM9.285 18.5525C11.2274 19.9221 13.2813 21.1263 15.425 22.1525C13.4718 27.8995 12.4835 33.9302 12.5 40H2.5C2.5 32.025 5.0225 24.6375 9.285 18.5525Z" fill="#9810FA"/>
</g>
<defs>
<clipPath id="clip0_1304_806">
<rect width="80" height="80" fill="white"/>
</clipPath>
</defs>
</svg>
